<?xml version="1.0" encoding="UTF-8"?>
<svg width="4000" height="4000" viewBox="-15 0 1300 200" version="1.1" xmlns="http://www.w3.org/2000/svg" xmlns:xlink="http://www.w3.org/1999/xlink">
    <!-- Generator: Sketch 51.3 (57544) - http://www.bohemiancoding.com/sketch -->

    <defs></defs>
    <g id="Custom-Preset">
        <g id="Alienation" fill="#fff">
           <path d="M 44.2 61.203 L 93.2 2.403 L 148 2.403 L 98.6 59.003 L 149 140.003 L 96.8 140.003 L 68.2 89.603 L 44.2 109.203 L 44.2 140.003 L 0 140.003 L 0 2.403 L 44.2 2.403 L 44.2 61.203 Z" id="0" vector-effect="non-scaling-stroke"/><path d="M 303.6 140.003 L 259.4 140.003 L 259.4 87.803 L 210.8 87.803 L 210.8 140.003 L 166.6 140.003 L 166.6 2.403 L 210.8 2.403 L 210.8 52.603 L 259.4 52.603 L 259.4 2.403 L 303.6 2.403 L 303.6 140.003 Z" id="1" vector-effect="non-scaling-stroke"/><path d="M 472.2 140.003 L 425.4 140.003 L 419.6 120.603 L 371.4 120.603 L 365.6 140.003 L 320.4 140.003 L 370.6 2.403 L 422 2.403 L 472.2 140.003 Z M 395.2 40.803 L 380.6 89.803 L 410.4 89.803 L 396 40.803 L 395.2 40.803 Z" id="2" vector-effect="non-scaling-stroke"/><path d="M 625.8 140.003 L 587.2 140.003 L 529.4 73.203 L 529.4 140.003 L 488.8 140.003 L 488.8 2.403 L 527.4 2.403 L 585.2 70.203 L 585.2 2.403 L 625.8 2.403 L 625.8 140.003 Z" id="3" vector-effect="non-scaling-stroke"/><path d="M 779.6 37.603 L 734.6 37.603 L 734.6 140.003 L 690.4 140.003 L 690.4 37.603 L 645.2 37.603 L 645.2 2.403 L 779.6 2.403 L 779.6 37.603 Z" id="4" vector-effect="non-scaling-stroke"/><path d="M 889.818 1.962 A 111.831 111.831 0 0 0 868.2 0.003 A 129.431 129.431 0 0 0 860.212 0.243 Q 830.376 2.088 813.3 18.103 A 54.322 54.322 0 0 0 804.677 28.487 Q 798.598 37.985 795.98 50.515 A 101.214 101.214 0 0 0 794 71.203 A 119.336 119.336 0 0 0 794.142 77.077 Q 795.654 107.754 813.3 124.303 A 58.543 58.543 0 0 0 824.553 132.557 Q 834.207 138.022 846.592 140.454 A 112.263 112.263 0 0 0 868.2 142.403 Q 903.8 142.403 923.2 124.203 Q 936.31 111.903 940.561 92.023 A 99.624 99.624 0 0 0 942.6 71.203 A 118.225 118.225 0 0 0 942.486 65.973 Q 941.115 35.01 923.2 18.203 A 58.934 58.934 0 0 0 912.365 10.169 Q 902.516 4.466 889.818 1.962 Z M 839.2 64.803 L 839.2 77.603 Q 839.2 89.762 844.333 97.759 A 27.101 27.101 0 0 0 846.6 100.803 A 23.827 23.827 0 0 0 859.427 108.432 Q 863.43 109.403 868.2 109.403 A 37.544 37.544 0 0 0 876.797 108.477 Q 884.861 106.581 889.9 100.803 Q 897.012 92.648 897.38 79.098 A 55.064 55.064 0 0 0 897.4 77.603 L 897.4 64.803 A 46.009 46.009 0 0 0 896.452 55.181 Q 894.734 47.146 889.9 41.603 A 24.219 24.219 0 0 0 876.844 33.94 A 37.497 37.497 0 0 0 868.2 33.003 Q 855.789 33.003 848.572 39.572 A 23.245 23.245 0 0 0 846.6 41.603 A 29.236 29.236 0 0 0 840.52 53.54 Q 839.386 57.919 839.226 63.089 A 55.548 55.548 0 0 0 839.2 64.803 Z" id="5" vector-effect="non-scaling-stroke"/><path d="M 1070.4 82.403 L 1101 140.003 L 1051.4 140.003 L 1027 89.803 L 1010.6 89.803 L 1010.6 140.003 L 966.4 140.003 L 966.4 2.403 L 1050.6 2.403 A 64.171 64.171 0 0 1 1062.525 3.455 Q 1069.796 4.83 1075.713 8.001 A 40.463 40.463 0 0 1 1075.9 8.103 Q 1086.4 13.803 1091.7 23.503 Q 1097 33.203 1097 44.603 Q 1097 57.203 1090.2 67.403 Q 1083.4 77.603 1070.4 82.403 Z M 1039.6 33.803 L 1010.6 33.803 L 1010.6 59.203 L 1039.6 59.203 A 11.789 11.789 0 0 0 1048.23 55.674 A 14.155 14.155 0 0 0 1048.4 55.503 A 12.544 12.544 0 0 0 1052 46.424 A 16.343 16.343 0 0 0 1052 46.403 A 13.307 13.307 0 0 0 1051.182 41.665 A 11.959 11.959 0 0 0 1048.4 37.403 A 11.949 11.949 0 0 0 1039.762 33.803 A 14.917 14.917 0 0 0 1039.6 33.803 Z" id="6" vector-effect="non-scaling-stroke"/><path d="M 1212.018 1.962 A 111.831 111.831 0 0 0 1190.4 0.003 A 129.431 129.431 0 0 0 1182.412 0.243 Q 1152.576 2.088 1135.5 18.103 A 54.322 54.322 0 0 0 1126.877 28.487 Q 1120.798 37.985 1118.18 50.515 A 101.214 101.214 0 0 0 1116.2 71.203 A 119.336 119.336 0 0 0 1116.342 77.077 Q 1117.854 107.754 1135.5 124.303 A 58.543 58.543 0 0 0 1146.753 132.557 Q 1156.407 138.022 1168.792 140.454 A 112.263 112.263 0 0 0 1190.4 142.403 Q 1226 142.403 1245.4 124.203 Q 1258.51 111.903 1262.761 92.023 A 99.624 99.624 0 0 0 1264.8 71.203 A 118.225 118.225 0 0 0 1264.686 65.973 Q 1263.315 35.01 1245.4 18.203 A 58.934 58.934 0 0 0 1234.565 10.169 Q 1224.716 4.466 1212.018 1.962 Z M 1161.4 64.803 L 1161.4 77.603 Q 1161.4 89.762 1166.533 97.759 A 27.101 27.101 0 0 0 1168.8 100.803 A 23.827 23.827 0 0 0 1181.627 108.432 Q 1185.63 109.403 1190.4 109.403 A 37.544 37.544 0 0 0 1198.997 108.477 Q 1207.061 106.581 1212.1 100.803 Q 1219.212 92.648 1219.58 79.098 A 55.064 55.064 0 0 0 1219.6 77.603 L 1219.6 64.803 A 46.009 46.009 0 0 0 1218.652 55.181 Q 1216.934 47.146 1212.1 41.603 A 24.219 24.219 0 0 0 1199.044 33.94 A 37.497 37.497 0 0 0 1190.4 33.003 Q 1177.989 33.003 1170.772 39.572 A 23.245 23.245 0 0 0 1168.8 41.603 A 29.236 29.236 0 0 0 1162.72 53.54 Q 1161.586 57.919 1161.426 63.089 A 55.548 55.548 0 0 0 1161.4 64.803 Z" id="Shape"></path>
        </g>
    </g>
</svg>